/* XPM */
static char *_bbb9c276b9a407da3e92366b80d6af3gUGFFlfAgki0EUfR[] = {
/* columns rows colors chars-per-pixel */
"64 64 5 1 ",
"  c #752F0C",
". c #80360C",
"X c #80350F",
"o c #B7AA02",
"O c #C8CF00",
/* pixels */
"                                                                ",
"                                                                ",
"                                                                ",
"                                                                ",
"      XXXXXXXXXXXXXXXXXX                 XXXXXXXXXXXXXXXXX      ",
"      XXXXXXXXXXXXXXXXXX                 XXXXXXXXXXXXXXXXX      ",
"      XXXXXXXXXXXXXXXXXX                 XXXXXXXXXXXXXXXXX      ",
"      XXXXXXXXXXXXXXXXXX                 XXXXXXXXXXXXXXXXX      ",
"      XXXXXXXXXXXXXXXXXX                 XXXXXXXXXXXXXXXXX      ",
"      XXXXXXXXXXXXXXXXXX                 XXXXXXXXXXXXXXXXX      ",
"      XXXXXXXXXXXXXXXXXX                 XXXXXXXXXXXXXXXXX      ",
"      XXXXXXXXXXXXXXXXXX                 XXXXXXXXXXXXXXXXX      ",
"      XXXXXXXXXXXXXXXXXX                 XXXXXXXXXXXXXXXXX      ",
"      XXXXXXXXXXXXXXXXXX                 XXXXXXXXXXXXXXXXX      ",
"      XXXXXXXXXXXXXXXXXX                 XXXXXXXXXXXXXXXXX      ",
"      XXXXXXXXXXXXXXXXXX                 XXXXXXXXXXXXXXXXX      ",
"      XXXXXXXXXXXXXXXXXX                 XXXXXXXXXXXXXXXXX      ",
"      XXXXXXXXXXXXXXXXXX                 XXXXXXXXXXXXXXXXX      ",
"      XXXXXXXXXXXXXXXXXX                 XXXXXXXXXXXXXXXXX      ",
"                                                                ",
"                                                                ",
"                                                                ",
"                                                                ",
"      XXXXXXXXXXXXXXXXXX                 XXXXXXXXXXXXXXXXX      ",
"      XXXXXXXXXXXXXXXXXX                 XXXXXXXXXXXXXXXXX      ",
"      XXXXXXXXXXXXXXXXXX                 XXXXXXXXXXXXXXXXX      ",
"      XXXXXXXXXXXXXXXXXX                 XXXXXXXXXXXXXXXXX      ",
"      XXXXXXXXXXXXXXXXXX                 XXXXXXXXXXXXXXXXX      ",
"      XXXXXXXXXXXXXXXXXX                 XXXXXXXXXXXoooXXX      ",
"      XXXXXXXXXXXXXXXXXX                 XXXXXXXXXXoOOOoXX      ",
"      XXXXXXXXXXXXXXXXXX                 XXXXXXXXXXoOOOoXX      ",
"      XXXXXXXXXXXXXXXXXX                 XXXXXXXXXXoOOOoXX      ",
"      XXXXXXXXXXXXXXXXXX                 XXXXXXXXXX.ooo.XX      ",
"      XXXXXXXXXXXXXXXXXX                 XXXXXXXXXXXXXXXXX      ",
"      XXXXXXXXXXXXXXXXXX                 XXXXXXXXXXXXXXXXX      ",
"      XXXXXXXXXXXXXXXXXX                 XXXXXXXXXXXXXXXXX      ",
"      XXXXXXXXXXXXXXXXXX                 XXXXXXXXXXXXXXXXX      ",
"      XXXXXXXXXXXXXXXXXX                 XXXXXXXXXXXXXXXXX      ",
"                                                                ",
"                                                                ",
"                                                                ",
"                                                                ",
"      XXXXXXXXXXXXXXXXXX                 XXXXXXXXXXXXXXXXX      ",
"      XXXXXXXXXXXXXXXXXX                 XXXXXXXXXXXXXXXXX      ",
"      XXXXXXXXXXXXXXXXXX                 XXXXXXXXXXXXXXXXX      ",
"      XXXXXXXXXXXXXXXXXX                 XXXXXXXXXXXXXXXXX      ",
"      XXXXXXXXXXXXXXXXXX                 XXXXXXXXXXXXXXXXX      ",
"      XXXXXXXXXXXXXXXXXX                 XXXXXXXXXXXXXXXXX      ",
"      XXXXXXXXXXXXXXXXXX                 XXXXXXXXXXXXXXXXX      ",
"      XXXXXXXXXXXXXXXXXX                 XXXXXXXXXXXXXXXXX      ",
"      XXXXXXXXXXXXXXXXXX                 XXXXXXXXXXXXXXXXX      ",
"      XXXXXXXXXXXXXXXXXX                 XXXXXXXXXXXXXXXXX      ",
"      XXXXXXXXXXXXXXXXXX                 XXXXXXXXXXXXXXXXX      ",
"      XXXXXXXXXXXXXXXXXX                 XXXXXXXXXXXXXXXXX      ",
"      XXXXXXXXXXXXXXXXXX                 XXXXXXXXXXXXXXXXX      ",
"      XXXXXXXXXXXXXXXXXX                 XXXXXXXXXXXXXXXXX      ",
"      XXXXXXXXXXXXXXXXXX                 XXXXXXXXXXXXXXXXX      ",
"      XXXXXXXXXXXXXXXXXX                 XXXXXXXXXXXXXXXXX      ",
"                                                                ",
"                                                                ",
"                                                                ",
"                                                                ",
"                                                                ",
"                                                                "
};
