/* XPM */
static char *de9cda276fe24b6f99be925d678582fcFABtD5OZ2tf6la9l[] = {
/* columns rows colors chars-per-pixel */
"64 64 104 2 ",
"   c #010101",
".  c #050708",
"X  c #07080B",
"o  c #090B0D",
"O  c #0B0E11",
"+  c #0F1115",
"@  c #091120",
"#  c #0F1E39",
"$  c #112445",
"%  c #13274C",
"&  c #15294E",
"*  c #1A2D4E",
"=  c #162C54",
"-  c #192E53",
";  c #162E58",
":  c #182F58",
">  c #1C3155",
",  c #1D335B",
"<  c #223555",
"1  c #253857",
"2  c #21365C",
"3  c #25395D",
"4  c #2A3D5C",
"5  c #1A3360",
"6  c #1F3864",
"7  c #1D3A6B",
"8  c #253C63",
"9  c #293E63",
"0  c #233D6B",
"q  c #283F68",
"w  c #2B405D",
"e  c #2D4163",
"r  c #26406E",
"t  c #2C436C",
"y  c #334563",
"u  c #364967",
"i  c #384967",
"p  c #30466E",
"a  c #354A6D",
"s  c #3B4E6D",
"d  c #3F526E",
"f  c #264172",
"g  c #2B4573",
"h  c #2F4876",
"j  c #2E4978",
"k  c #314772",
"l  c #324A74",
"z  c #394E72",
"x  c #334C79",
"c  c #384F79",
"v  c #3B5076",
"b  c #37517D",
"n  c #3B527C",
"m  c #414F65",
"M  c #424F69",
"N  c #435167",
"B  c #44546D",
"V  c #48556D",
"C  c #47586F",
"Z  c #49586F",
"A  c #415370",
"S  c #435370",
"D  c #435472",
"F  c #435473",
"G  c #425673",
"H  c #455571",
"J  c #445474",
"K  c #455674",
"L  c #445774",
"P  c #445775",
"I  c #4A5770",
"U  c #485773",
"Y  c #475870",
"T  c #465873",
"R  c #465874",
"E  c #445877",
"W  c #4B5871",
"Q  c #485873",
"!  c #4A5872",
"~  c #4A5972",
"^  c #4A5973",
"/  c #4B5973",
"(  c #435779",
")  c #42567B",
"_  c #42577C",
"`  c #44587A",
"'  c #44587B",
"]  c #475B7C",
"[  c #44597E",
"{  c #495C7E",
"}  c #2D4D82",
"|  c #2D518E",
" . c #365181",
".. c #3E5782",
"X. c #2D5291",
"o. c #32589C",
"O. c #415780",
"+. c #435B84",
"@. c #495D81",
"#. c #495E82",
"$. c #495F84",
"%. c #4A6086",
"&. c #4C638A",
"*. c #4C648C",
/* pixels */
"    . . O O O O .                                                                                                               ",
"  D d B M N M B A A D K K K K z x n %.H K K K ' K K K K K H K K K u 9 r n @.{ K R G K K R R K K K K K K R R e , t ' R P K K K   ",
"  D M M m m N N A H H H K R u , 5 x @.R R K R R R R R K R ` ` G s y r 7 l &.@.H R R K H R R K R R G R ` ] @., $ , R K K K R K   ",
"  A d M m N B B B H K K R H 2 $ , b ] K K R ' H G ' D R K R K R i 9 , , t %.] D H G H T K K K K K K K H @.g > = t P ' K R K K   ",
"  A B m m N ! V B H H H K u > = 8 H R ` ' P R R R K H K ' K R K u 8 = $ e @.D G D T H T ! H H T K R K ] %., $ , ' D D P G G K   ",
"  B B N N B V V ! ! H R K 3 $ , n ` K K H G P D R D ' R K R K ' u , = > z ] G D H B H ! ! T R H R G K @.h - - t D T T R K K G   ",
"  A B B V V V V ! ! T T i > = 8 G R K G H R R H K G K K R H R G i > $ 2 %.T B v H B B V B ! H H G K ] $., $ , ' P R ! R T K K   ",
". D B B V ! ! ! H ! T R 4 % , v R R D R R H T H K R G K K ' R R t - % 8 ` D B V B V V V T H R D K K $..., = 3 ' D D R R R H K X ",
"X H H H B Z ! C ! T T u , - e G P D D D B T T C H D R D R K H d 8 : $ e R D D B B Z Z B H H R K R H %.j > $ 3 G T T / ! ! / ! o ",
"O H ! ! ! T ! ! H H T 3 $ , b R P P R T T ! ! ! ! R H P K R K i , = - s R D H R B T Z / I H B D G T v h , - 4 T T ! Q / Q Q Q o ",
"O T I ! ! ! T H H D u > = 8 H D R D H T B ! ! ! H H D D R ' s y > $ , %.K H H H H Z Z ! I H H G G R l 7 , $ 3 T H V ! Q ! ! T + ",
"O H T ! ! H H H D d , $ , n R R H H B T Z ! Z Z B H H G R H u 2 = - t @.R K R ! ! ! T V H H G G G R g 6 , , p D H ! ! ! ! ! R + ",
"X K T K H T H H H t = - e ' K K R D B B Z Z V C Z H H H ` K i - $ 2 *.@.H K K R ! H C H H D G R K ( g = $ 8 ( D T B ! ! ! ! T + ",
". l t 3 3 8 e e s h , $ 4 R R D T H ! T ! ! ! C B B D D K R 4 - = e $.` K K K R ! H T H H H R K R R l , - 9 v B B B Z ! ! B d + ",
"  f > % = $ = $ , , = & 4 P K D H H T Z ! V ! C B D H P R K < $ = x $.K R K K K K ' { ` R K G R K R t = $ e v B B Z T Z ! B B + ",
"  f 6 , , = = = = $ % $ , v P D H ! H ! ! ! ! T B D D H K K < & ; x #.G K R K R R { &.@.R G R K ' R 8 - > l G B B N Z ! ! B C + ",
"  X.o.| o.j 8 8 , - - & = h D K D T ! ! R / ! I D K D G R K < $ ; x @.K R G P P H %.&.%.%.' K R K K - $ = @.v B B V Z ! ! V H + ",
"  } } }  .l y w w y < $ , t z R T T T ! ! Q I R K K R R P u - * 5 g n R K G R R K %.*.*.&.%.p , > = % $ & 9 y B B B Z ! ! Z H + ",
"  K D K D T D R H i < * > 5 h T T ! T I R T K H G K R R R 4 $ < t 7 h K R ' R P ] &.n l l l - $ % $ % , = $ 1 D T B ! / ! B T O ",
"  H H K T H H T T d y < $ , l H T ! ! T ! ! R D R G G D ' 4 = < 3 t n K R K ] ] b x 0 = , = & $ & - 8 8 = > y H D T ! ! ! T B + ",
". D H T T ! Z K H R i * % : l R R H ! T R K T H P P R R ' e $ & $ = 2 , , , , , - % & $ = $ - 4 u @.&., $ 2 G K H H ! T ! T H o ",
"X D T H B H ! T C H s < $ > g z R T K K T G K G P R ] @.n 2 & % $ % $ & $ % % % $ $ $ * 4 4 u K H @.*.2 % , G G ! R T ! ! R ! X ",
"o T T V V C V ! ! H B w * = , h K K K R K R R G z t l r , = $ > 2 5 , 2 , , % $ & > < u R ` K R R $.%., $ 2 R K R K T ! ! K R X ",
"+ B B ! B V Z ! T H T d > $ , l K R R K K K z 8 , : > & $ > 3 l +.+.+.@.@.e = - u K K K G K G K K @.&., % , K K K H T T T K T   ",
"+ B B B B V V Z B T C D < & = h K K R G K u , = $ - $ - 2 l +.+.+.+.+.+.+., $ 2 z R K K R K K R K { &.2 $ , G G R K R R K K K   ",
"O D B V V V ! Z ! ! H T 1 $ > l K R K ' K 2 $ - 3 9 9 a +.+.+.+.] +.+.+.0 = * < u R K R R K R R K @.&.2 % , $.' R K R H R K P   ",
"o B B B Z Z Z ! ! T H T 1 % ; l R P R u 4 , ; q @.O.O.+.+.+.+.' G ( +.c , $ - u s R K H G H R H H ' @.3 $ , j c ' ' O.' G H G   ",
"X B V V V V ! Z ! ! T D 4 $ : g G P D 4 $ , g b +.+.+.+.' K H K ` @.+.q = - < u R K G H R R R ! / H { v 2 - , g j b +.+.] +.]   ",
"X B N N B T Z ! ! ! H R 4 * ; t @.K u > - , j +.+.O._ ( K H K R _ @.c , $ > y s G R G R ! T T ! ! R ` { 9 $ > , , g g c +.+.+.  ",
". v B B B ! ! ! ! ! K R 4 $ = t %.@.9 $ ; 0 c +.O.( H K H K D K _ +.g = % * i R D R D H H T ! T T B B R l 9 1 $ : , ; , 5 8 l   ",
"  D D D ! ! ! C T T T R u - = 2 $.n < > 7 j O._ ( H H I I I K K ` x g , $ < u s D R T T ! ! ! C C Z v B ] @.s 9 2 $ - $ % $ e   ",
"  H H B B H H T T H H K K > $ > $.e $ , 7 k ( A B s B V Q Q R H K l 7 2 - 3 4 u K H B T ! ! T C H K B B H G G H u 9 e 2 2 3 s   ",
"  G K G D R K K R K K K K - % : z 1 > 0 g x B N N N N V V H H T z t g 8 $ < w i G K H H ! T Z / Z V B B B P G T R P T K R R P   ",
"  K K K R K H K K K K G K 2 $ - 2 $ 2 7 g _ B v N N N V V B H D t 7 h e - 2 w i G D D T Z Z Z ! V Z B B T H D H D T G T D P R   ",
"  K G K K G K K K R K K K u , 5 - - , g b _ B M i N V V ! B B G l q g 8 $ 3 y i D R H H V ! ! ! Z Z T C ! B T Z T T D D K K K   ",
"  K G R K R K G K R G u 4 3 - , : $ ; j _ G s N N N V V B H B P t 7 h 9 - 3 4 i R G D B V B ! ! B ! ! H ! T Z T T C H T R G K   ",
"  K K u 4 , < 3 , 2 , > $ = $ = = = 8 b _ A M M N N V V B B D D z l l , $ 4 u y d G H A H B B Z Z Z ! Z ! ~ ~ ! ! ! H R K K R   ",
"  t , > $ = $ % % % $ = : , 2 = $ % a ' R A B B V Z V Z C B D P K K g 5 > 3 e 4 u D A D T H V ! Z ! ! ! ~ ~ ~ ~ Q Q R K K G K   ",
"  , % - = , , 8 , 8 2 9 l n @.q % % e K B B B V V V Z Z B H D R K K x g , $ 4 y y d P D B H T C C ! ! T ~ / ~ / Q ! H K H K K   ",
"  t , t h n @.{ @.@.O.' O.+.+.8 = - s K H D B B V V V Z C H D H K K ' j , - 2 4 w u R D B D D R B T ! ! / ~ ~ ~ / Q R R R G K   ",
"  O.$.+.+.+.n _ ( _ _ +.O.+.+.8 $ , n K H R H ! H V V B T H D R K K +.n g , $ < y u R D R K K H H T T T V T ! ! R ! H R K H K   ",
"  @.' _ _ _ _ _ ( _ ( ( O...+.9 = ; l K K H H ! B ! ! ! H H R D G R ' +.g 5 > > < y u d K K D R D T B D H T D H T R G G d u n   ",
"  K G K B v v B B A H D K _ +.8 $ , l K K D T B T B ! B H H H G ' G ' @.n t , $ , e w u u s K H H G R B T T T T R P H D u 4 s   ",
"  K G H B B N M M M B B D ( O.9 & = k ' R K K H H H T T H R R K K ] @.t , , = % = > > , w y u s H R K T v D D D R R R d y y D   ",
"  T B D B B B N N V Z B H H ' 8 $ , g n K D D T P T D T P K K ' @.p , - $ = $ = $ % $ = > > - > > 3 u u u u i u u i u y w t x + ",
"  v D B B B B ! V B / / H H +.9 > 2 7 l D R G G D ] { { { a 9 8 8 - % - , 1 4 4 9 8 > % $ = $ % $ = - > - - - > - - - , , 8 7 # ",
"  B B s N N B V V Z ! H R H +.9 $ 2 f l R H R n l l x x x , $ * $ = , e D D P R ] @.e $ % > , , , - $ % % & $ % $ & $ & $ , g @ ",
"  H B B V B V V ! B H H G P O.e > , 7 h @.n l g 7 f 7 6 = , ; , - e H H K H R D H K a > = r *.&.*.t , 8 , , 8 2 2 2 , 2 , t K   ",
"  v B N V Z B V ! I B B P P ' 9 $ , 0 f x g 7 g k 8 - - $ > t a P H T T T T D T D K K , $ 2 %.@.' @.] %.@.@.] @.%.' R D R G G   ",
"X B N N B V ! V I H K R P P ..9 ; ; 7 0 0 0 t 3 < * $ > 4 u R G B D H T T ! H T R H u - = r G K R K R R K K K D D H H R P R R   ",
"  D B N V V ! H H B H D P O.+.9 $ ; 0 e r 3 > * $ * < w R G H D D C ! Z T ! R T H P 4 $ = l D R R D K R T G D D R R R R R K K   ",
". B B N B ! ! I ! B H R R ' ..e % ; 0 4 - - $ < < y K B B d d B C C ! ! ! ! B T D D 4 = , l K D G R R H K T T ! D T H R R R `   ",
"  D B B ! ! ! ! H H K G R +.b , $ & - * $ > 4 u D D D D B B B B B Z ! ! ! Z ! C P P 4 $ ; h G R R T R ! K ! H T R T K ! ! K R . ",
"  H H H H Z ! ! H G G G ' +.j 5 2 - $ < 4 u D v v B s B B B V Z ! ! ! ! ! ! ! T B D 3 * , l G K K R ! T Q H T H ! ! ! R T K T . ",
"  D K T I ! ! T K ! G +.+.b f 0 , > < u H D D B N B B N N B B B Z ! ! Z ! Z C R d D 4 $ ; l K K T Q Q ! I H T H ! ! I ! ! ! H o ",
"  T D H K T ! H R G ' a 9 , = - $ < s K G B d B N B N B B ! ! Z Z ~ Z ~ ! ! C G B P 4 = , g H R K Q Q ! Q I H I H Z I K I H H X ",
"  K K G R R R K G _ +.8 $ % $ - > 4 H D D D B B N V V V V V ! V Z Z Z ! ! Z H B D G 4 $ 3 7 R K H ! ! ! H Z B B V B B Z C B R X ",
"  R K K K K K K ' l 9 5 ; 8 9 9 y i T R D B N N N V ! V V Z ! Z Z Z Z ! ! C H P D K 4 - 8 r K K T T ! ! / ! ! B V V B Z C H D . ",
"  K K K R G K K $.9 $ , g z i u 4 u R G D D B V B V Z ! ! ! B Z V V V ! ! H H T G K 4 $ , 7 G K R T T T ! ! ! T B V V B D B D . ",
"  K K K G R G u , 8 , : q y 4 y i v K G D B N B ! ! V ! Z V N B N B B B B B D D H K 4 - , g G K D R T T T T H ! V B B B H D H   ",
"  K R K K R G e $ ; g f 4 y u s R G ' H D H B B B V B B B B d B B B B Z T T T D G K 4 $ = l R K R R R H T P H H H B B D D D P   ",
"  K ' R R K ' 8 = , l i y u K K K R K K K D H D H B H B B B B d d D H G P D D P R K 4 = , x ] D D D D K P R H H H D D D D K G   ",
"  K K R K K ' 9 $ = x s 4 u K R K K R R R G H H B D D B P D D D D D D P D D P T K K 4 $ ; j @.K R K R K R R D T D P H R D K R   ",
"                    @                         . . . .                                                                           "
};
