/* XPM */
static char *e17bce689bde46dbcfc17fd31319fceayUQ1TRy4jvGH2FVe[] = {
/* columns rows colors chars-per-pixel */
"64 64 112 2 ",
"   c #010101",
".  c #050708",
"X  c #07080B",
"o  c #090B0D",
"O  c #0B0E11",
"+  c #0F1115",
"@  c #1C1B1B",
"#  c #091120",
"$  c #0F1E39",
"%  c #192928",
"&  c #222423",
"*  c #383736",
"=  c #112445",
"-  c #13274C",
";  c #15294E",
":  c #192C4E",
">  c #162C54",
",  c #192E53",
"<  c #162E58",
"1  c #182F58",
"2  c #1C3155",
"3  c #1D335B",
"4  c #223554",
"5  c #253857",
"6  c #21365D",
"7  c #25395D",
"8  c #2A3D5C",
"9  c #193360",
"0  c #1E3865",
"q  c #1D3A6B",
"w  c #253C63",
"e  c #293E63",
"r  c #223C6C",
"t  c #283F68",
"y  c #2B405D",
"u  c #2C4164",
"i  c #2C436C",
"p  c #324563",
"a  c #364967",
"s  c #384967",
"d  c #31466C",
"f  c #354A6C",
"g  c #3B4D6D",
"h  c #3F526D",
"j  c #264274",
"k  c #2B4472",
"l  c #2E4978",
"z  c #314770",
"x  c #324A74",
"c  c #394E72",
"v  c #324C7A",
"b  c #384F7A",
"n  c #3B5076",
"m  c #3B527C",
"M  c #297573",
"N  c #474740",
"B  c #414E65",
"V  c #424F68",
"C  c #435167",
"Z  c #44546D",
"A  c #48566E",
"S  c #47586F",
"D  c #49586F",
"F  c #415370",
"G  c #435370",
"H  c #435472",
"J  c #435672",
"K  c #465570",
"L  c #445472",
"P  c #445474",
"I  c #445774",
"U  c #455774",
"Y  c #455675",
"T  c #445775",
"R  c #485771",
"E  c #475873",
"W  c #465874",
"Q  c #475974",
"!  c #445877",
"~  c #4B5871",
"^  c #4A5872",
"/  c #4A5972",
"(  c #4B5972",
")  c #435779",
"_  c #42567B",
"`  c #42577C",
"'  c #44597C",
"]  c #475B7C",
"[  c #495C7E",
"{  c #912929",
"}  c #A62626",
"|  c red",
" . c #916640",
".. c #856B56",
"X. c #29917A",
"o. c #E1FF00",
"O. c #2D4D82",
"+. c #2D518E",
"@. c #365181",
"#. c #3E5782",
"$. c #2D5291",
"%. c #32589C",
"&. c #435A84",
"*. c #495D81",
"=. c #495F84",
"-. c #4A6086",
";. c #4C628A",
":. c #4C648C",
">. c #299180",
",. c #29918E",
"<. c #D9A980",
"1. c #AEC7C6",
/* pixels */
"    . . O O O O .                                                                                                               ",
"  H h Z V Z V Z F P L Q W W P c x #.=.P W W T ! W P W W T W W W P s w i m =.] L W W W P W W W W W P W W Q L u 3 i ] T T W P W   ",
"  H V V B B C Z Z L L L W W a 3 3 l -.T W W W W T T T W ] P P ! g p w q x ;.=.L W W L Q W W W L P T T T [ =.6 = 3 ) L W W W W   ",
"  Z n V B B C C Z F L P W L 6 = 3 m ] W T P T T W W T T W Q P W s u w 2 i -.] H L H H H W H W T W W T W =.d > , i T W W T P W   ",
"  Z g V C C D A L Z L Q W a 2 > t ) T W W T H Q ! T T T W T W P s w > = i =.L H L Q S ^ Z Q Q H W T H ] -.3 = 3 ! T P F T T T   ",
"  h Z C C A A A D D L Q P 7 = 3 n W L T T H T T T P W W W T P ! a 3 < 2 c T H H L Z L D D Q J H T T Q [ k , > i J H ^ Q W T H   ",
"  Z Z Z Z A A A D ~ H Q s 3 > w T W W W T H Q H P T L P T T T P s 2 = 3 =.H H Z Z Z Z Z ^ L Q Z H T ] -.3 = 3 ) W T ^ Q Q L H   ",
"X H Z Z A A D A R Q Q W 8 = 3 n W T H L L Q ^ A W W H W ! W T ..i > ; 7 ] H H Z Z Z ^ A A D Q H W P =.#.3 > 6 ] H H W W W Q H X ",
"X H L L R ^ D ^ R L Q a 3 , u P W T H H Q Q Q L H W W L W W ......> = u W H H H Z A A D ^ L ^ J J H [ l > = e Q W Q ~ ~ Q ~ P o ",
"O ^ ~ D R ^ ~ D R R ^ 5 = 3 n W W H H Q S Q ^ R ^ W L P ......} ......g W W Z Q D S D ^ ^ Z Z H Q Q m l 3 2 7 H Q Q ^ ^ ( W Q o ",
"O Q R ^ R ^ D L L L a 3 > t T T H L Q Q Z D ~ ^ L Z L ......} ............L H D R D A D D L H H J W x q 3 = 7 Q Z ^ ^ ^ D ^ ^ + ",
"O L W D ^ L S L L c 3 = 3 n W H L F Z Z D D ~ ~ S Z ......................P L ^ ~ A L Q W L H H T W d 0 3 3 d L L D ^ Q ~ ^ W + ",
"X L Q L Q L L L W i < > u T P T H H Z A R ~ A A Z L * <.<.<.<.<.<.<.<.<.* H T L R L S L Z H T T T T k < = w P Z Q A ^ ^ Q ^ R O ",
". x i 7 w 7 u u c x 2 = 8 T T T Q H ^ Q ~ D D S A Z * <.<.<.<.<.<.<.<.<.* W W T ^ L Q H Q L T W W W x 2 > e n L Z Z D D ~ D H + ",
"  j 2 = > = > = 2 2 > ; 8 W H H L W L Q ~ A Q A Z Z * <.<.@ <.<.<.@ <.<.* W T W L ] [ ] H T T P T W i < = e n Z C Z ^ Q ^ A Z + ",
"  j q 3 3 < > < > = - = 3 c W H L ^ ~ ~ ~ ~ S S Q L * <.<.<.<.<.<.<.<.<.* W L W W [ ;.[ Q Q L W W P w , 2 x ) C A Z ~ D ^ Z H + ",
"  $.%.+.%.l w w 3 : > : < k H Q H Q ^ ^ Q ^ A ^ L W * <.<.<.<.<.<.<.<.<.* T W W H -.;.-.=.[ W W T W 2 = > &.Z Z C Z D ~ ~ L Z + ",
"  O.O.O.@.x p u p p 2 = 3 i c Q Q Q ~ Q ^ Q ^ Q L F  .*  . . . . . . .* * P T W W -.;.:.;.-.i 3 3 - - = > 8 p Z H Z D ^ ~ ~ ^ + ",
"  W L Q H Q Z H L s 4 : 2 9 x L L H D D W ^ L L H T  . .* * *  . .* *  . .W W P ] -.#.x x x 2 = = = - 3 > = 5 L Q Z ^ ^ ^ L Q o ",
"  L L W H L Q Q Q h p 4 = 3 x Q ^ Q ,.,.,.{ { ,.,.,.<.<. . .* * *  . .<.<.,.,.,.,.,.,.,.,.> - = - > w t > 2 a L L S ^ ^ ^ S J + ",
"X H F Q Q D D ^ Q L s : ; < x W W ,.,.,.,.{ { ,.,.,.,.<.<.<.<.<.<.<.<.<.,.,.,.,.,.,.,.,.,.,.2 7 a =.-.3 = 3 n L Z Q Q Q ^ H ^ + ",
"X H ^ Z Z Z ^ H Z H h 4 = 2 k c W ,.,.,.,.{ { ,.,.,.,.,.<.<.<.<.<.<.<.<.,.,.,.,.,.,.,.,.,.,.a W L =.;.w ; 3 W H Q Q ^ ^ ^ W Q . ",
"O H D A A D ^ D ^ Q Z y : > 9 x W <.<.<.<.{ { ,.,.,.,.,.,.,.<.<.<.<.<.,.,.,.,.,.,.,.,.,.,.,.W W Q [ -.3 = 3 T W Q L Q D ^ H Z . ",
"+ Z L D Z Z D ~ ^ Z W h 2 = 2 x W <.<.<.<.{ { ,.,.,.,.,.,.,.<.<.<.<.,.,.,.,.,.,.,.,.| | | | T P H =.;.6 - 3 W T L L Q H Q H H . ",
"+ Z Z Z Z A A D Z ^ Z L 4 ; 2 x W <.<.<.<.{ { M M M M ,.,.,.,.<.<.,.,.,.,.M M M M ,.o.o.o.o.W W P [ =.6 = 3 T T Q Q W W W W W   ",
"O H Z A A A D D D ~ L Q 4 = 2 x T <.<.<.<.,.{ M M M M ,.,.,.,.<.<.,.,.,.,.M M M M ,.| | | | W W W [ ;.6 ; 3 ` ) W L W W W P W   ",
"o Z Z Z D D ~ ~ D Q L ^ 5 - < x L <.<.<.<.,.{ { M M M ,.,.,.,.<.,.,.,.,.,.M M M M ,.,.<.<.<.Q ^ L [ =.7 = 3 l b ` ` ` ` W H P   ",
"o Z Z C Z A ~ R ~ Q Q H 8 = < k W <.<.<.<.,.{ { { M ,.,.,.,.,.,.,.,.,.,.,.,.M M ,.,.,.<.<.<.L L Q Q [ n 6 2 9 k l b &.&.] &.`   ",
"X Z C Z Z A A D ~ ^ L L y : < i [ <.<.<.<.,.,.{ { { ,.,.,.,.,.% ,.,.,.,.,.,.,.,.,.,.,.<.<.<.Q ^ D Q ` [ u = 2 2 3 k z b &.&.&.  ",
". Z Z Z A D ^ ^ ^ ^ P W 8 = < i -.<.<.<.<.,.,.,.{ { { ,.,.,.,.,.,.,.,.,.,.,.,.,.,.,.,.<.<.<.D S ^ Z Z Q c u 6 = , 3 < 3 9 w c   ",
"  F F L ^ ^ R D Q A W W a , > 6 -.<.<.<.<.,.,.,.,.{ { { { ,.,.% ,.,.,.,.,.,.,.,.,.,.,.<.<.<.^ ^ S S h H ] ] g e 6 = > = - = u   ",
"  T L F Z H L Q Q L L W W 2 = 2 =.<.<.<.<.,.,.,.,.,.{ { { { ,.,.,.,.,.,.,.,.,.,.,.,.,.<.<.<.^ S L Z Z n H H H H f e u 6 6 7 g   ",
"  H T T L H W P P T W W P , - 3 f <.<.<.<.,.,.,.,.,.,.,.{ { { { ,.,.,.,.,.,.,.,.,.,.,.<.<.<.~ ~ D Z Z Z H H H Q J Q H T Q T W   ",
"  P T W W P ^ H W W T P W 4 = , 3 <.<.<.<.,.,.,.,.,.,.,.,.,.{ { { { { ,.,.,.,.,.,.,.,.<.<.<.~ ~ A S Z Z S L J L H Q Q Q H T W   ",
"  W T W W T P W W T W W P s 1 3 3 <.<.<.<.,.,.,.,.,.,.,.,.,.,.% { { { { { { ,.,.,.,.,.<.<.<.^ ~ D D S Q Q Z S W Q Z Z H T W W   ",
"  P P T W W W P T W W s 7 6 3 9 < <.<.<.<.,.,.,.,.,.,.,.,.,.,.,.,.,.,.{ { { { { { ,.,.<.<.<.S D Z ^ D L D Q Q ^ Q Q L Q W W P   ",
"  W W a 7 7 4 6 3 w 3 , = > = - : <.<.<.<.,.,.,.,.,.,.,.,.,.,.,.,.,.,.,.,.,.{ { { { { <.<.<.A D D D ^ D ~ ~ ( ^ Q D L W T T P   ",
"  i 6 > = > = = = = = > 1 3 6 > = <.<.<.<.,.,.,.,.,.,.,.,.,.,.,.,.,.,.,.,.,.,.,.,.{ { <.<.<.A Q D ~ ^ D ( ( ( ( ^ ^ Q P H H W   ",
"  w = > , 3 3 w 6 6 6 t z m [ t ; = e H N N N ,.,.N N N N N 1.1.1.N N N N N ,.,.N N N H H Z Q S D ^ ^ Q ( ( ( Q ^ ^ H W H H W   ",
"  i 3 u x b &.=.[ =.&.) &.&.&.w > 2 f Q N N N ,.,.N N N N N 1.1.1.N N N N N ,.,.N N N L Z H H Q H ^ D ^ Q ( ( ( ^ Q Q W W T W   ",
"  &.&.&.&.=.m T ` ) ` &.&.&.&.w = 3 n T N N N ,.,.N N N N N 1.1.1.N N N N N ,.,.N N N W W H P H Z Q Q Q S ^ Q ^ Q Q H W W L W   ",
"  ` =.] ) m ` m ) ` m ) ` &.&.e > < x T X.X.X.X.X.X.X.X.X.X.X.X.X.X.X.X.X.X.X.X.X.X.X.n W H H W H H Z Q L Z L H Q Q H W h a n   ",
"  P W n Z n H Z Z F L L P ` &.w = 2 x W X.X.X.X.X.X.X.X.X.X.X.X.X.X.X.X.X.X.>.X.>.X.X.p a h L H J Q J H L Q W Q L L W H f 8 g   ",
"  W T H Z Z C V C C Z Z F ! &.t ; < x ] X.X.X.X.X.X.X.X.X.X.X.X.X.X.X.>.X.X.X.X.X.X.X.3 8 a a g H Q J H H H H H Q Q Q g p p P   ",
"  T P Z n Z Z Z C A A A Q L &.w = 3 x m X.X.X.X.X.X.X.X.X.X.X.X.X.X.X.X.X.X.X.X.X.X.X.2 1 1 2 2 2 7 a a f s s s s s s p y i v + ",
"  T F Z Z Z C A Z D D ^ Z H &.e , 3 q x X.X.X.X.X.X.X.X.X.X.u 7 9 X.X.X.X.X.X.X.X.X.X.- = ; = - = > , 2 , , , 2 > , , 2 2 w q $ ",
"  F Z C C Z A A A A ~ L L L &.t = 3 j x X.X.X.X.X.X.X.X.X.X.= > = X.X.X.X.X.X.X.X.X.X.= - , 3 3 2 , = ; = - = - = ; = ; = 3 k # ",
"  F Z Z C A C Z Z D L D L L ) e , w q l X.X.X.X.X.X.X.X.X.X.< 3 3 X.X.X.X.X.X.X.X.X.X.4 , i ;.;.;.k 3 6 3 w 3 w 6 6 6 3 3 u ]   ",
". h Z h C ^ A A ~ ^ Z H H H ! w = 6 r r X.X.X.X.X.X.X.X.X.X.i f H X.X.X.X.X.X.X.X.X.X.3 = 2 =.=.=.] ] =.=.] =.-.] ] T H W T T   ",
". Z B C A ^ A A D A S H Q ) #.u < < q r X.X.X.X.X.X.X.X.X.X.T H Z X.X.X.X.X.X.X.X.X.X., , i L W Q Q L Q W H L H H L H T W W H   ",
"  Z C Z Z ~ ~ L L A L H W ` &.u = 2 r t X.X.X.X.X.X.X.X.X.X.H Z H X.X.X.X.X.X.X.X.X.X.= < x W P W W Q L Q W L L Q Q Q ^ W W W   ",
"  Z Z V Z ~ ~ Q A L H Q T ` #.u - > r 8 X.X.X.X.X.X.X.X.X.X.Z Z ^ X.X.X.X.X.X.X.X.X.X.> 3 x P F T H W W L L Q R H Q F W W H L X ",
". F Z Z D ^ D ~ W L H T W ` m 3 = > , : X.X.X.X.X.X.X.X.X.X.Z A A X.X.X.X.X.X.X.X.X.X.= < l W T W Q Q ^ L Q L D Q Q ~ P H L W X ",
"  F L Z R R ^ ^ L H H ! &.&.l 9 4 2 = 4 X.X.X.X.X.X.X.X.X.X.Z A D X.X.X.X.X.X.X.X.X.X.> 2 x T T H Q Q ^ R R Q L ^ ^ ~ ^ ^ Q Q . ",
"  L H Q R ~ ~ L Q Q P ` &.m j r 6 : 4 a X.X.X.X.X.X.X.X.X.X.L Z D X.X.X.X.X.X.X.X.X.X.= < x W W W W W ^ R R R R D ^ R ^ D Q H o ",
". P H L R P ~ W J L ) d t 3 < , = 4 g H X.X.X.X.X.X.X.X.X.X.^ ^ A X.X.X.X.X.X.X.X.X.X., 2 k T P H ^ W ^ R R L R R R R R A H H o ",
"  P J H L W L H J ` &.w = > = , : y W W & & & & & & & & & & D A A & & & & & & & & & & = 6 q W T W W D ^ D L Z A Z A A D A L Q X ",
"  W W P W W W P ! n w 9 < w e e p s W P & & & & & & & & & & A A D & & & & & & & & & & 4 w i T W ^ ~ Q ^ R ^ R D A C Z D D Z Z . ",
"  W T T W W W W =.u = 3 k c g p 8 s P F & & & & & & & & & & Z Z Z & & & & & & & & & & = 2 q W W Q H Q L ~ ~ D L A Z Z Z Z H H . ",
"  W T W W W W a 3 3 2 9 i p 8 p f g W T H H Z Z ^ D Z ^ A A Z Z C Z Z Z H Z H H H P 8 : 3 j T P P W Q Q ^ L Q D A Z Z Z L H H   ",
"  P W W W W ! w = < j i 7 p a g T W T T L L Z Z A Z A Z Z Z Z Z Z H Z Q Q H Q H T T 7 = < x W H L Q T H Q Q Q L L Z Z L L H J   ",
"  W T T P W ` w : 3 x f p a P W W W T W L L H Z Z Z Z Z Z Z Z h h Z H Q H Q H J W W 8 > 2 v ] W W H Q H H W H L L H H H H H Q   ",
"  W W ! P W ` e = < v c 8 a W W W P W W P W F H Z Z F H H H H H H H H H H H Q Q P W 8 = < v =.L W W H W Q H H Q H Q H L T Q Q   ",
"                    +                       . . . . .                                                                           "
};
