/* XPM */
static char *d2b763ddda604e7bc865abae370a7b90LKr4InvjFRZIXyYE[] = {
/* columns rows colors chars-per-pixel */
"64 64 120 2 ",
"   c #010101",
".  c #050709",
"X  c #07080B",
"o  c #090A0D",
"O  c #050A14",
"+  c #0B0E12",
"@  c #060C18",
"#  c #0E1116",
"$  c #0C121C",
"%  c #12161D",
"&  c #0A1221",
"*  c #0B172D",
"=  c #151B25",
"-  c #191D26",
";  c #151D2A",
":  c #181E28",
">  c #0E1B32",
",  c #0F1E39",
"<  c #101E38",
"1  c #1C222D",
"2  c #0F213F",
"3  c #162133",
"4  c #1A2333",
"5  c #1F2835",
"6  c #262F3F",
"7  c #27303F",
"8  c #28303E",
"9  c #112445",
"0  c #13274D",
"q  c #15294E",
"w  c #1A2D4F",
"e  c #162D55",
"r  c #192E53",
"t  c #162E58",
"y  c #182F58",
"u  c #1C3155",
"i  c #1D335B",
"p  c #263141",
"a  c #2A3344",
"s  c #20304C",
"d  c #2A3548",
"f  c #2E3849",
"g  c #213453",
"h  c #293751",
"j  c #2B3B54",
"k  c #21365D",
"l  c #25395D",
"z  c #2A3D5C",
"x  c #193360",
"c  c #1E3865",
"v  c #1D3A6B",
"b  c #253C63",
"n  c #293E63",
"m  c #223C6B",
"M  c #283F68",
"N  c #36445C",
"B  c #3A455A",
"V  c #35485C",
"C  c #3B485D",
"Z  c #2D4163",
"A  c #26406E",
"S  c #2C436B",
"D  c #324562",
"F  c #374967",
"G  c #394964",
"H  c #31466C",
"J  c #34496A",
"K  c #3B4D6C",
"L  c #3F536C",
"P  c #254275",
"I  c #2B4473",
"U  c #2E4978",
"Y  c #314770",
"T  c #324A74",
"R  c #394E73",
"E  c #324C7A",
"W  c #384F7A",
"Q  c #3B5076",
"!  c #3A527C",
"~  c #414E65",
"^  c #424F68",
"/  c #435167",
"(  c #44536D",
")  c #49566E",
"_  c #4A596F",
"`  c #455673",
"'  c #485771",
"]  c #465873",
"[  c #495872",
"{  c #42567B",
"}  c #44597D",
"|  c #4B5F78",
" . c #B50202",
".. c #FF0100",
"X. c #FF0C01",
"o. c #FD2709",
"O. c #FB3D00",
"+. c #FA3E3E",
"@. c #B9A000",
"#. c #C4B500",
"$. c #CABF00",
"%. c #D2CD00",
"&. c #DEE200",
"*. c #EEFF00",
"=. c #F0FF1F",
"-. c #F2FF36",
";. c #F3FF46",
":. c #F3FF4F",
">. c #F4FF52",
",. c #F5FF5C",
"<. c #F5FF65",
"1. c #F6FF68",
"2. c #2D4D82",
"3. c #365181",
"4. c #3E5782",
"5. c #2D5291",
"6. c #32589C",
"7. c #435B84",
"8. c #495D81",
"9. c #4C648C",
/* pixels */
"      X o + + o X                                                                                                               ",
"  ` ` ( ^ ( ^ ( ` ` ` ` ` ` ` R T ! 9.` ` ` ] ` ` ` ` ` ] ` ` { ` G b S Q 9.} ` ` ` ` ` ] ] ` ` ` ` ` ` ] ] Z i S } { ] ` ` `   ",
"  ( K ^ ~ ~ / ( ^ ` ` ` ` ` F i i E 8.] ` ` ] { ] { { ] { ] ] ` K D M v T 9.8.` ` ` ` ] ] [ ` ` { ` ` ] } 8.i 9 i { ` ` ] ` `   ",
"  ` ( ^ ~ ~ / ( ` ( ` ` ` ` k 9 i ! } ] ] { ` ] ` ] ` ` ` ] { ` F n c u S 9.] ` ` ` ` ` { ` ` { ` ` [ { 8.H r y S ` ] { { ` `   ",
"  ` L ^ ^ / _ ) ` ( ` ` ` F u e Z ` { { ` ` ` ` { [ ` G p : + .       . & d G ` ` ( ` ' [ ) ` ` ` ` ` } 8.k 9 i { ` ` ` ` ` `   ",
"  K ( / / ) ) ) ) ) ' ] ] l 9 i Q { ` ` ` ` ` ` ` d #     *.*.*.*.*.*.*.*.*.  # a ( ` ) [ ` ` ` ` ] ` 8.Y y r S ` ` ` ] ` ` `   ",
"  ( ( ( ( ) ) ) [ [ ' ` F i e b ` { ` ` ` ` ` d X     *.*.*.*.*.*.*.*.*.*.*.*.*.*.o a ) ( ' ` ` ` ` } 9.i 9 i { { ` ] ] ` ` ` . ",
". ` ( ( ) ) ) ) ' [ ] ] n 9 i Q ` ` ` ` ` G %   *.*.*.*.*.*.*.*.*.*.*.*.*.*.*.*.*.*.*.% C ` ( ` ` ` 8.4.i q b { ` ( [ ] ] ( ` . ",
"o ( ` ` ) [ [ [ ' ` ( K i w b ] ` ` ` ` d   *.*.*.*.*.*.*.*.*.*.*.*.*.*.*.*.*.*.*.*.*.*.  f ` ` ` ` 8.T t 9 b ] ] ] [ [ [ [ ' o ",
"+ ` ' ' ) ' [ ) ` ' ` l 9 k W ] ` ` ` 6   *.*.*.*.*.*.*.*.*.*.*.*.*.*.*.*.*.*.*.*.*.*.*.*.  7 ` ` ] ! U i e z ` [ ` [ [ | [ ' + ",
"o ` [ [ [ [ [ ` ` ` F u e A ` ` ` ` p *.*.*.*.*.*.*.*.*.*.*.*.*.*.*.*.*.*.*.*.*.*.*.*.*.*.*.  p ` { T v i 9 l ` ( [ [ [ [ ' ` # ",
"+ [ ' [ ` ' ( ` ( R i 9 i Q ` ` ` d *.*.*.*.*.*.*.*.*.&.%.&.*.*.*.*.*.=.;.;.=.*.*.*.*.*.*.*.*.  d { H c u k S ` ` ' [ [ [ ) ` # ",
". [ ` ` ' ` ` ` ` S t r Z ] ` ` N   *.*.*.*.*.*.*.&.%.$.@.%.*.*.*.*.*.-.1.1.,.,.-.*.*.*.*.*.*.*.  N S y 9 b { ( ` ) [ [ [ ' ' + ",
". T S b l l Z n R T y 9 z ` ` ` + *.*.*.*.*.*.*.*.%.@.$.%.&.*.*.*.*.*.=.;.,.<.<.>.*.*.*.*.*.*.*.  # I i r n { ^ ( ) _ [ [ ) ( # ",
"  I y 9 e 9 e 9 u i e q z ] ` 5   *.*.*.*.*.*.*.&.$.$.&.*.*.*.*.*.*.*.*.*.=.,.<.,.;.=.*.*.*.*.*.*.  3 y 9 n { ( ( / ' [ ' ) ` # ",
"  P c i i y e e e 9 0 9 i R D *.*.*.*.*.*.*.&.%.$.@.%.*.*.*.*.*.*.*.*.*.*.*.-.<.<.<.;.*.*.*.*.*.*.    9 u T Q ( ) / _ [ [ ) ` + ",
"  5.6.5.6.U c b i e w q t Y : *.*.*.*.*.*.*.%.@.$.%.&.*.*.*.*.*.*.*.*.*.*.*.=.:.,.<.<.-.*.*.*.*.*.*.  @ e 7.( ( ( ( _ [ [ ) ( # ",
"  2.2.U 3.T D D D D u 9 i k *.*.*.*.*.*.*.*.%.#.%.*.*.*.*.*.*.*.*.*.*.*.*.*.*.*.=.,.<.,.-.=.*.*.*.*.*.  9 n D ( ( ( [ _ [ _ ' # ",
"  ` ` ` ` ] ` ` ` G g s u & *.*.*.*.*.*.*.*.%.@.%.*.*.*.*.*.*.*.*.*.*.*.*.*.*.*.*.>.<.<.<.-.*.*.*.*.*.*.$ 9 l L ] ` [ [ [ ) [ + ",
"  ` ` ` ` ( ` ` ` L D g 2   *.*.*.*.*.*.*.&.$.$.&.*.*.*.*.*.*.*.*.*.o...o.*.*.*.*.=.,.<.,.;.=.*.*.*.*.*.  g D ` ` ( [ [ [ ` ` + ",
". ` ] ] ] [ ' ] [ ` G u > *.*.*.*.*.*.*.*.%.@.%.*.*.*.*.*.*.*.*.*.......+.*.*.*.*.*.;.<.<.<.-.*.*.*.*.*.  < ` ` ` [ ] [ [ ` ` + ",
"X ( ` ( ( ( [ ' ( ` K g O *.*.*.*.*.*.*.&.$.$.&.*.*.*.*.*.*.*.*...o.......*.*.*.*.*.=.,.<.,.;.=.*.*.*.*.*.$ ` ` ` ` [ [ [ [ ' . ",
"o ] ( [ ) ) ) [ [ ` [ z   *.*.*.*.*.*.*.%.@.%.*.*.*.*.*.*.*.*.o..... ...X.*.*.*.*.*.*.;.<.,.<.-.*.*.*.*.*.  ` ` ` [ ] [ [ [ ` . ",
"+ ( ` _ ( ) ) [ ' ` ` j *.*.*.*.*.*.*.*.%.#.%.*.*.*.*.*.*.*... ....... .X.*.*.*.*.*.*.=.,.<.<.-.*.*.*.*.*.  N ` ` ` ] ] ` ` `   ",
"# ( ( ( ) / ) [ ) ] ` 7 *.*.*.*.*.*.*.*.%.@.%.*.*.*.*.*.*.*...o.X.*.X... .*.*.*.*.*.*.*.>.<.1.-.*.*.*.*.*.*.p ` ` ` ` ` [ ` `   ",
"# ` ( ( ) ) _ _ [ ) ` 1 *.*.*.*.*.*.*.*.%.#.%.*.*.*.*.*.*.*.*.*.*.*.X...X.*.*.*.*.*.*.*.>.<.,.-.*.*.*.*.*.*.4 { { ` ` ` { ` `   ",
"o ( ( ( _ ) _ [ [ ' ` % *.*.*.*.*.*.*.*.%.@.%.*.*.*.*.*.*.*.*.*.*.*.X.....*.*.*.*.*.*.*.;.1.1.-.*.*.*.*.*.*.& W } } { } ` ` `   ",
"o ( ( ( ) ) [ [ [ ' [ o *.*.*.*.*.*.*.&.$.$.&.*.*.*.*.*.*.*.*.*.*.*. .....*.*.*.*.*.*.*.=.>.<.;.*.*.*.*.*.*.. I U W 7.7.} } 7.  ",
"o ( ( ( ( ) ) [ [ [ ` . *.*.*.*.*.*.*.%.@.%.*.*.*.*.*.*.*.*.*.*.*.*.......*.*.*.*.*.*.*.*.:.<.>.*.*.*.*.*.*.. i i I I W 7.7.7.  ",
"  ( K ( ( _ ' [ [ [ [   *.*.*.*.*.*.*.%.#.%.*.*.*.*.*.*.*.*.*.*.*.*.......*.*.*.*.*.*.*.*.:.<.:.*.*.*.*.*.*.  9 y i y i b k T   ",
"  ` ` ` ) ' ' _ [ ' `   *.*.*.*.*.*.*.%.@.%.*.*.*.*.*.*.*.*.*.*.*.*... ...*.*.*.*.*.*.*.*.>.<.>.*.*.*.*.*.*.  N k 9 e 9 0 9 Z   ",
"  ` ` ( ( ` ` ' ` ` `   *.*.*.*.*.*.*.%.#.%.*.*.*.*.*.*.*.*.*.*.*.*... ...*.*.*.*.*.*.*.*.:.<.>.*.*.*.*.*.*.  ` F z Z l i l K   ",
"  ` ` ` ` ` ` ` ` ` ` . *.*.*.*.*.*.*.%.@.%.*.*.*.*.*.*.*.*.*.*.*.*.......*.*.*.*.*.*.*.*.>.<.>.*.*.*.*.*.*.. ` ` ` ` ` ` { ]   ",
"  { ` ` ` ` ` ` ` ` ` + *.*.*.*.*.*.*.&.$.$.&.*.*.*.*.*.*.*.*.*.*.*.X...X.*.*.*.*.*.*.*.*.:.<.:.*.*.*.*.*.*.+ ` ` ` ` ` ] ` `   ",
"  ` ` ` ` ` ` ` ` ` [ % *.*.*.*.*.*.*.*.%.@.%.*.*.*.*.*.*.*.*.*.*.*.+...X.*.*.*.*.*.*.*.*.>.<.:.*.*.*.*.*.*.% ] ` ` ( ` ` ` `   ",
"  ` ` { ` ` ` ` ` { { = *.*.*.*.*.*.*.*.%.#.%.*.*.*.*.*.*.*.*.*.*.*.X. .X.*.*.*.*.*.*.*.*.:.<.:.*.*.*.*.*.*.1 ' _ ] ` ] { ` `   ",
"  ` ` F l l g k k k i ;   *.*.*.*.*.*.*.%.@.%.*.*.*.*.*.*.*.*.*.*.*.X...X.*.*.*.*.*.*.*.*.>.<.>.*.*.*.*.*.*.8 [ [ [ ` ] ` ` ]   ",
"  H k y 9 q 9 q 9 q 9 9   *.*.*.*.*.*.*.&.$.$.&.*.*.*.*.*.*.*.*.*.*.......*.*.*.*.*.*.*.-.,.,.-.*.*.*.*.*.*.B [ [ [ ] ` ` ` `   ",
"  b 9 e y k k b k b i b   *.*.*.*.*.*.*.*.%.@.%.*.*.*.*.*.*.*.*.*.*.+...X.*.*.*.*.*.*.*.>.<.>.*.*.*.*.*.*.. [ [ [ [ ` ` ` ` `   ",
"  S i n U W } 8.} } 7.} = *.*.*.*.*.*.*.*.&.$.$.&.*.*.*.*.*.*.*.*.*.X...X.*.*.*.*.*.*.-.,.,.-.*.*.*.*.*.*.= [ [ [ [ ] ] ` ` `   ",
"  7.7.7.4.7.{ { { { { 7.h   *.*.*.*.*.*.*.*.%.@.%.*.*.*.*.*.*.*.*.*.O.X. .*.*.*.*.*.*.>.<.,.*.*.*.*.*.*.*.f [ ' } ' ` ` ` ` {   ",
"  } 7.{ { { { ! { { ! { |   *.*.*.*.*.*.*.*.&.$.$.&.*.*.*.*.*.*.*.*.*.*.*.*.*.*.*.*.-.<.<.>.*.*.*.*.*.*.  _ ` ` ] ` ` ` ( F Q   ",
"  ` ` ` ` ( ` ` ^ ` ` ` ` 4 *.*.*.*.*.*.*.*.*.%.@.%.*.*.*.*.*.*.*.*.*.*.*.*.*.*.*.=.,.1.,.=.*.*.*.*.*.*.1 ] ` ` ` ] ` ] F z K   ",
"  ` ` ` K ( ( G ^ ( ^ ( ` N *.*.*.*.*.*.*.*.*.%.#.%.*.*.*.*.*.*.*.*.*.*.*.*.*.*.*.;.<.1.>.*.*.*.*.*.*.  N ` ` ` ] ` ` K D D {   ",
"  ` Q ` ( ( ( ( ( ( ) ) ` ` : *.*.*.*.*.*.*.*.%.@.$.%.&.*.*.*.*.*.*.*.*.*.*.*.*.*.>.<.,.=.*.*.*.*.*.*.= F D G G F G F D z H E $ ",
"  ` ( ( ( ( ) ) ) ( ) ' ` ` F *.*.*.*.*.*.*.*.&.%.$.@.%.*.*.*.*.*.*.*.*.*.*.*.*.*.;.<.;.*.*.*.*.*.*.  9 r y y u r r y u u b v , ",
"  ` ^ ^ ( / ( ) ) ) ) ` ` ` { > *.*.*.*.*.*.*.*.*.&.$.$.&.*.*.*.*.*.*.*.*.*.*.*.*.=.-.=.*.*.*.*.*.  $ 0 9 0 9 0 9 q 9 q 9 i I $ ",
"  ( ( ( ( ) / ) ) ) ' ) ` ` { b O *.*.*.*.*.*.*.*.*.%.@.%.*.*.*.*.*.*.*.*.*.*.*.*.*.*.*.*.*.*.*.*.@ i b i b i b k k i k i S `   ",
"  Q ( ( ) ) ( ) ' ' ( ` { ` } b ,   *.*.*.*.*.*.*.*.&.%.&.*.*.*.*.*.*.*.*.*.*.*.*.*.*.*.*.*.*.*.*.G 8.8.} 8.8.8.} } ` ` { ` `   ",
". ( ^ / ) ) ) ) ' ' ( ` ( { } Z r < *.*.*.*.*.*.*.*.*.*.*.*.*.*.*.*.*.*.*.*.*.*.*.*.*.*.*.*.*.  d ` ` ` ` ` ` ` ] [ ` ] ] ` `   ",
"  ( ( / / [ [ ' ) ` ` ( ` } 4.Z 9 y <   *.*.*.*.*.*.*.*.*.*.*.*.*.*.*.*.*.*.*.*.*.*.*.*.*.*.  p ` ` ] ` ` ` ` ` ] ` ] ` ` ` `   ",
"  L ( / ) [ [ ' ' ( ` ` ` 7.4.Z q t m 3   *.*.*.*.*.*.*.*.*.*.*.*.*.*.*.*.*.*.*.*.*.*.*.*.*.p ` ` ] ] ` ` ` ` ` ` ` ` [ ] ` ` . ",
". ` ( ( ) ' [ ' ] ` ` ] { } W i 9 e r w *   *.*.*.*.*.*.*.*.*.*.*.*.*.*.*.*.*.*.*.*.*.*.  s ` ` ` ] [ [ [ { ` _ ` [ [ [ [ ` ` . ",
"  ( ` ( ' ' [ ' ` ( ` ! } 7.U x i w 9 g l j %   *.*.*.*.*.*.*.*.*.*.*.*.*.*.*.*.*.*.  O q T ` ` { [ ` [ ' ` ` ` ` [ [ [ ] ` ] . ",
"  ` ` ` ` [ [ ' ` ` ` } 7.W P m k s g D ` ` ` 6 . *.*.*.*.*.*.*.*.*.*.*.*.*.*.*.*.X 3 9 t T ` ] [ [ [ [ ' ` ) ' [ ' ' [ ) ` ` o ",
"  ` ` ` ' ' [ ` ) { } H Z i t r 9 g Q ` ` ` K ( ( 6 #   *.*.*.*.*.*.*.*.*.*.*.$ p ` z r i I ` ` ` [ [ ` ' ' ` ) ' ' ' ' ' ' ` o ",
"  ` ` ` ] ] ` ` ` { 7.l 9 e 9 u u z ] ` ` Q ^ ( / / ) B 8 - + .     . + - 8 B ( Q ` z 9 k v ` ` ` [ [ [ ' ' ( ) ) / ) _ ( ` ] . ",
"  ` ` { ` ` ` ` 7.J b c y i Z Z D G ` ` ` ( ( / ) ) [ ) ) ) ' ) _ ) _ [ [ ` ` ] ` ` z r i S ` ` ] ' [ ' ' [ ' ) ) ) ( _ [ ( ( . ",
"  ` ` ` ` ] ` ` 7.Z 9 i I T F D Z G ` ` ( ( ( ( / [ ' [ _ _ ( ) ( ( _ _ [ ` ` ` ` ` z 9 b v ` ` ` ] ] ] [ [ ' ) ) ( ( ( ( ( ` . ",
"  ` ` ` ] { ` F k i i x S V Z D F K ` ` ` ( ( ( [ ) ) ) ) ' ( ( ( ( ( ( ( ( ( ` ` ` z r i P ` ` ` ] ] ] [ ` ` ) ) ( ( ( ` ` `   ",
"  ` { ] { ` ] n 9 t I S l D G L ] ` ] ` ` ( ( ( ) ) ( ( ( ( ( ^ ( ( ` ( ] ` ` ` ` ] l 9 i Y { ` ` ` ` ` ` ` ` ` ` ( ( ` ` ( `   ",
"  ` ` ` ] ` } n e y E J Z G ] ` { ` { ` ` ` ` ` ) ( ` ^ ` L ( L L ( ` ` ` ` ` ` ` ` n w i E } ` ` ` ` ` ` ] ` ` ` ( ` ` Q ` `   ",
"  ` ] { ` ` } b 9 e E K z F { ` ` ` ` ` ` ` ` ` ( ` ` ` ` ( ` ` ` Q ` ` ` ` ` ` ` ` z 9 e U 8.` ` ` ` ` ] ] ` ` Q ( ` ` ` ` ]   ",
"                    $                         . . .                                                                             "
};
