/* XPM */
static char *a54193c1a16448aac2c2a2ade65e87dcnLC6FMYJaGGQK6kB[] = {
/* columns rows colors chars-per-pixel */
"64 64 93 2 ",
"   c #2F5AD5",
".  c #325CD6",
"X  c #385FD4",
"o  c #3257DA",
"O  c #335CDD",
"+  c #395EDF",
"@  c #3561DD",
"#  c #3B63DE",
"$  c #3457E3",
"%  c #365CE4",
"&  c #395DE5",
"*  c #375CE9",
"=  c #385CED",
"-  c #395CED",
";  c #3A5CEC",
":  c #3B5CEC",
">  c #3A5CED",
",  c #3B5CED",
"<  c #385EEC",
"1  c #3B5EEC",
"2  c #3A5EED",
"3  c #395CEE",
"4  c #3A5CEE",
"5  c #3B5CEE",
"6  c #3460E0",
"7  c #3660E3",
"8  c #3962E1",
"9  c #3963E3",
"0  c #3E63E3",
"q  c #3965E0",
"w  c #3A65E2",
"e  c #3D65E1",
"r  c #3860E6",
"t  c #3E60E4",
"y  c #3D63E5",
"u  c #3C64E5",
"i  c #3F67E6",
"p  c #3F68E6",
"a  c #3960E9",
"s  c #3A62E9",
"d  c #3A60EA",
"f  c #3C61EA",
"g  c #3C60EB",
"h  c #3D63EA",
"j  c #3C64E9",
"k  c #3F65E9",
"l  c #3F67E9",
"z  c #3E68E8",
"x  c #4065DF",
"c  c #405FEC",
"v  c #4167E2",
"b  c #4263E7",
"n  c #4265E5",
"m  c #4766E7",
"M  c #436AE5",
"N  c #446BE7",
"B  c #4065EB",
"V  c #4366EB",
"C  c #4263EC",
"Z  c #4162EE",
"A  c #4263EE",
"S  c #4164ED",
"D  c #4366EF",
"F  c #4466EC",
"G  c #4867EA",
"H  c #4569E9",
"J  c #456BE8",
"K  c #4569EA",
"L  c #476AED",
"P  c #476AEE",
"I  c #4869ED",
"U  c #4969ED",
"Y  c #7D97BC",
"T  c #859CBD",
"R  c #899DBD",
"E  c #8EA0BD",
"W  c #93A4BE",
"Q  c #99A6BE",
"!  c #9EAABE",
"~  c #859EC3",
"^  c #8DA2C1",
"/  c #93A6C2",
"(  c #95A8C4",
")  c #9DABC3",
"_  c #A2AEC3",
"`  c #A6B0C4",
"'  c #ABB3C4",
"]  c #AFB6C4",
"[  c #B1B6C4",
"{  c #B3B8C5",
"}  c #B6BAC6",
"|  c #B9BBC5",
" . c #BCBEC8",
/* pixels */
"; ; ; ; ; ; $ 4 5 ; $ ; 4 5 5 5 ; ; ; ; 4 ; ; 4 4 4 ; 4 ; ; ; 3 3 3 4 ; 4 ; 5 ; ; ; ; ; ; 5 g ; ; ; ; ; * 5 g g ; 4 ; ; ; ; ; ; ",
"; ; ; ; 3 3 4 4 4 5 3 4 4 5 5 5 ; ; 4 ; ; 4 5 4 4 4 4 ; ; ; 4 4 ; ; ; ; 4 5 4 ; ; ; ; ; ; ; ; ; ; ; ; ; ; ; ; ; ; g g ; ; ; * ; ",
"4 $ 3 ; ; 3 ; ; ; 4 ; 4 ; 3 5 ; 2 3 ; ; 5 5 5 4 ; ; ; 4 g 3 3 a 4 ; ; ; 3 g * ; ; * * ; ; ; % ; % ; ; % & ; & & ; s % % % O % % ",
"4 ; ; ; ; ; ; ; 4 3 3 3 3 3 ; ; 2 ; g ; 5 ; 4 ; ; $ 3 3 * * % % $ ; * % $ * % % * % * & * % * % 3 % ; % r r r & % % % 7 @ O % * ",
"; $ ; ; $ ; ; s s * s s % f f f j s s ; s s 7 9 % % @ O 7 O % @ O @ @ O 6 O 6 % % % r % % r & & r s & & & & % & % % O o % % % j ",
"4 4 5 5 * ; s s f B f A k D K D H B M i u w u # w @ @ @ @ O @ O @ O O O 6 O @ O % % % 7 r 1 $ & & & & * & & & & % % % % % * ; ; ",
"; 4 $ 5 ; s f B B B F L A I B U B H 0 # w # # # # # # # # # w w 7 7 7 7 7 % 7 7 % O & O 8 % & & & * & + & & c + * * ; ; ; 4 ; ; ",
"4 ; 4 5 ; f A U D U B D A B B D } [ ` # @ @ 7 9 0 p p N p N p N h p B h z p h h 0 p 0 0 n @ n & & 0 c + b m n m A r ; 5 ; ; ; ; ",
"5 ; ; ; g A D D D B g ; g ; g ] ' * 7 / % 7 7 7 i r i h i D z s D U H U D U L U D I B G B v n n b m c m n c A A c : 5 : : : : : ",
"5 4 ; ; A U A g 1 ; ; * s * ) ; 7 6 % 6 ^ 7 7 7 O % r r s = s 3 f B s D D * D s B A F A A B C c c c c c c 1 ; ; : : : 1 : : ; 5 ",
"; ; ; ; ; A h ; * s & 7 ( ( 7 7 % 6 O @ @ ^ 6 6 % @ O 7 $ % 7 s r % f 5 s = s * , , * , ; * g 3 & & & 5 , , * * ; * * 1 ; ; ; , ",
"5 5 ; ; 5 5 ; % f % 7 ^ % O O % O @ % @ @ 6 ^ ^ 6 O % @ @ @ 6 @ 7 7 7 $ 7 7 * * _ _ _ _ ` ` * * & & % = ' _ ' % $ * * & $ ; 5 , ",
"$ $ 5 = * ; * * % / / % O @ O O % O O @ 6 @ % % ( ) % O @ O O O O @ O @ 6 6 6 ^ ) $ 6 % 6 ) ( ) % % % _ ) r % % % % % * ; = ; ; ",
"5 5 ; = * ; ; * _ % O O % % O % % % O % % 7 O 7 % % ) Q % % 7 O O O % O O 6 O ^ O # $ 6 6 % 6 O / Q / / % O @ O & % * % $ 5 & $ ",
"; ; = = 3 * ; * ; % * $ % * % * $ ; * % % % % % % % % 7 % % % $ % % $ % 6 % O O O % O O 6 O O O O @ O O O 7 O O O % $ % % 5 ; % ",
", ; ; ; 3 3 ; ; ; ; 3 % 3 3 3 a ; ; ; 3 ; ; 3 ; * * * * ; * % & % % % % $ % 6 $ % O 6 6 6 o O 6 O O O O O O % % O % % $ = % $ % ",
"5 5 ; 5 $ ; 5 $ ; ; ; , 1 c * c 5 B , 1 1 1 , : ; = * % ; ; * * & % $ = & $ % = $ $ % % % $ $ % % $ % % $ & * % * * ; * % ; * * ",
"5 5 5 ; 5 5 5 5 : 1 ; f C A A A C C b b b 1 & & & % % & % % % & $ = % % $ % $ % $ = $ $ $ % $ % & 5 * * ; : * ; 5 ; ; ; ; ; 1 5 ",
"5 ; ; 5 5 5 5 $ * 5 5 n U B G D F n v n n 0 # 0 # 0 + 8 O & o O & $ % % % $ O % & $ O $ $ & & 0 0 i f F B 1 i * * & ; * c c c & ",
"; 5 5 5 5 5 5 5 1 5 5 g b 0 0 0 0 # + # + 0 v b M n n v B n 0 0 & & % 8 & 0 r r + n & 7 # 0 z u # # 0 0 v 0 0 i n 0 0 0 x c m & ",
"= 5 5 5 = 5 5 = ; ; $ & % O O O O O % 7 & # 0 0 i 0 f D h h H p n 0 h B B p h M N M p i p z z q 0 # @ @ @ w # # x x x + x 0 + & ",
"; 5 5 5 5 5 5 $ ; % $ $ o O o O O % % % & & % & r r 0 * M 0 i D N n H n N h N J N N H M z z q 7 w @ 7 7 r # 0 0 + c c c & c & & ",
"; 5 5 $ = 5 5 5 % $ o O O % % % % % % % 7 % % * r 8 r r 7 s u 7 u i p h p p p i M i p r 7 s s * % % 7 * ; ; * 5 & c : : ; 5 , $ ",
"= 5 = 5 5 5 5 = * * * % * % % % % & 7 & r & r h r ; r * ; % ; s s r r r 7 7 % i r i 7 % % % % * % 3 * 3 5 g ; 5 , : : ; ; : : c ",
"; 5 = = , ; , ; s $ % * s * 7 % @ r 7 r & s s s = s = ; 7 ; * $ * * r r r % % j % ; % * % % % $ $ ; ; ; ; 5 : : , , : : , 5 ; 5 ",
"5 ; 5 = , 1 ; * r ( ( ( ( 6 7 7 7 O r % & & % % % 5 ; % = 5 ; s s s ; * * * 3 * * ; ; * ; ; ; ; = ; 5 ; , : : 1 : : : ; : , 5 ; ",
"$ 5 = $ , : & 5 % ~ @ 7 7 ^ ^ 7 @ % % @ % @ & 7 % % % % ) _ ) ` ` * * ; * ; ; 3 * * * * * ; ; $ ; ; ; 5 , 5 5 1 5 5 $ ; 5 5 5 ; ",
"5 5 5 5 , , 1 $ / 7 % 7 % % O E O % O O O % o o O O ~ ^ @ s 7 s % * * * * % * * ; * * * ; $ $ ; = $ $ $ $ $ % $ $ ; ; $ 5 ; 5 5 ",
"5 5 5 5 $ 5 c ` @ % O O $ O o O W Q o O o O o W Y Y @     @ O O O O % O % % % $ % % % % % $ % % $ % % o o % O % $ $ $ $ 5 5 5 5 ",
"5 5 5 5 5 $ $ ` $ $ O $ o $ % $ % O ! Q ! / ( O O @ O o O   o o O O o % o % o % % % % % % $ % % $ o o % & $ % % ; $ $ ; 5 5 5 ; ",
"5 ; % $ $ $ $ $ $ $ % $ $ % % % * % * & & % & % % % * % % O O o O $ O @ O % % O o % o % o O O O O % % * & ; ; = ; ; 5 5 5 ; ; ; ",
"; $ $ $ $ $ 5 $ * * 3 3 * a ; ; ; ; 5 & j * s ; ; * ; ; % * % % $ % % % % O % $ % o % % % % % % % % % ; r ; ; : : & 5 $ 5 5 5 5 ",
"5 = $ = = 5 ; ; , , , , ; ; 5 * : : 1 1 5 5 1 5 5 ; 5 5 4 ; $ ; % * * % % $ % O % % % % * $ % * * % ; s * 5 r h ; ; 1 1 5 1 : , ",
"; 5 ; = ; ; 5 5 5 , , 5 5 f 5 1 f 1 1 , 5 5 * 1 % 5 5 5 3 4 4 ; a * * * 3 3 * * % % $ * * % % % & % s * & * & * * ; 5 5 * 5 : , ",
"; ; ; 5 = ; 5 5 5 5 B A D B B 1 f 1 1 1 1 * 5 5 3 3 5 5 ; 4 5 ; ; ; 4 3 3 ; ] [ ] * & & % & & & % 7 % % % % 5 % % ; * & ; ; ; ; ",
"; 5 5 5 5 ; A ; c A F U F U C B A C c 1 5 5 5 * 5 5 4 4 4 ; ; 5 ; ; 4 4 | | ; ; ] ' ; 7 & & ; & ` ` ` ` $ = % % % & * * 5 $ 5 ; ",
"; ; ; 5 ; A A A A U A A D A D L F I C C c * 5 5 5 5 5 5 ; ; ; ; ; ; | | ; 3 3 ; ; s ] ` ' ' [ [ ; ; 4 ; * ; 4 ; ; $ = = $ ; ; ; ",
"; 5 5 * B L F U U A A 1 f s B A B A C I D A A 5 5 5 $ 5 ; * ; ; { { * ; 3 ; % * ; g ; 3 , 1 5 5 ; ; 5 ; ; ; ; ; 5 = ; ; ; 5 ; : ",
"h * 5 n F L H D B f 1 * * ; & 5 & : C 1 n D b b n ; 5 $ % ; * & * * * ; ; j ; ; ; ; 5 5 5 * * 5 2 4 4 5 ; 4 5 5 ; ; 5 5 5 5 : : ",
"; 5 5 C L A f * 5 & ; & % % % % & O + & 8 8 n x 0 n 1 & 8 % % & % & & r & & & & & * 1 * 5 5 ; 5 ; ; 4 5 ; 4 5 5 ; ; 5 5 5 : ; ; ",
"; ; ; 5 5 f g 5 * % % O % O O o o o o o O O @ # # M n n 0 8 # 7 @ @ w 8 8 & r & r r s s c 1 B 1 , , , , , , , , : , ; , : , , , ",
"; 5 ; ; 5 * * * % o $ % % $ $ % % O $ o O o + o + @ & v 0 # @ # w # 8 n i B v b n B 0 b A D C C c , , , , , , : , , ; ; : , , , ",
"; 5 ; % % % & o $ % % % $ % % % % $ $ % % o o % O O @ % # i + x X x & J v b b m n B A G G U G G A 5 , , , , : : , ; 5 5 5 5 5 5 ",
"; ; ; ; ; * % o % $ = ; * * ; ; * 1 & % % % % % % % O O # o + + + + 0 & c b b B c b c A c A c c A 5 , , , , : : : 5 ; $ $ $ 5 5 ",
"; ; ; ; & * r % % % ; * * * * ; 3 3 * % % % % @ % $ % * $ % % % + o % % % % * * % & & 1 1 c c c 5 5 5 ; $ c : : : : $ $ $ o ; ; ",
"; ; g ; ; & % % ; r & & j & % % % 7 $ 7 % $ O O O $ * 7 % ; $ $ o o % o % % $ $ $ $ 5 $ 1 o : $ $ $ & $ c $ $ $ $ O $ $ $ ; ; : ",
"3 ; ; ; ; * ; % % * % % % O O T ^ E E E E E O o o O O $ $ $ % o % O % o o o $ o ; O & O o O $ O & o $ $ $ + $ O O $ $ ; ; ; ; ; ",
"3 3 ; ; ; ; ; * * % & @ W / T @   @   @ O % W O O     o   O O O $ o $ $ % $ O % $ $ $ & : $ : $ 5 $ ; & $ & : $ O : ; : ; 5 , ; ",
"; ; ; ; : ; ; ; & 0 0 _ / @ 0 & + $ + & $ & $ W W O           o O % % % % $ % % % * * % * & ; ; 5 $ : : * 5 5 * * * 1 ; : , , , ",
"; ; $ ; : : 1 1 b F H ) v b n b F c B & 5 & : & 8 / ( ^ W T T R T E O % % % * % * % % % ; ; ; ; 1 : : : 5 5 1 * 1 & 5 5 , , , , ",
"4 ; 4 4 1 f * D G B n 0 & b A A U D U c F C f & & : & % & % % o O O O O $ % O % % % % % % % % % * % 5 ; s * 5 * ; & 5 * , : , , ",
"; 4 4 4 5 f C C A h ; ; & & , B c G c c U U U n B B f D ; ; 3 % O O O O O O O O   @ O @ O % % O % + $ $ $ = & s $ % 1 1 , ; , , ",
"4 ; 5 * 5 c U c c ; = = ; 5 ; ; ; c : c A A B L U F I A A c A c r & % 8 o O o X   o . O o % @ @ O @ O @ % % 7 % & & ; 5 ; ; ; ; ",
"$ 4 5 * 1 c C C c ; $ ; 5 ; ; ; ; ; ; : ; 5 5 ; B B A A U C U A D * B 0 b & i & w 8 0 8 = ; & & & & O & @ 7 & r & & & 0 & b 1 5 ",
"; ; ; 5 5 f D U ; : 5 ; : $ ; ; ; ; 5 ; ; : ; ; 1 , , c C A A c U U U A U c G F G b B } } } } [ [ ` ` _ % & & * & f & f b b F D ",
"5 5 5 5 * 5 f C : ; ; = 5 ; ; ; = = = ; 5 : g ; : : , 5 c c A c c A A A G A A A A F  .A U A U G U D B n } [ B b b n n F B F  . .",
"; ; ; = 5 ; ; 5 : ; r 5 * f f * & & * % s ; * * * ; * ; * ; ; ; 5 ; 1 f 5 ; A ; ; | s g D A A A D D I A D G  .|  .|  .|  .| A A ",
"= 5 ; ; = 5 $ = ; ; r ; & * s % & % 7 r r % r % 7 s % * 7 % s * $ : 5 * ; g 5 5 3  .g ; 5 c c f c c A A A A G A A A A D c ; ; A ",
"; ; 5 5 ; ; 5 5 ; ; % ; * * % * ; = 3 4 s r r ; s % s % s s ; % 1 s % * * * * 5 ; ; ; g 5 5 5 5 c : , c c c c , ; c 5 5 , , , , ",
": : 5 5 5 5 5 5 ; ; 5 = % ; * ; $ 3 3 % ; ; ; ; ; ; s * ; ; ; 4 r r s * r & & * ; % ; ; 5 5 * 5 , , , ; 5 5 ; 5 ; 5 5 5 , , , , ",
"5 5 5 ; 5 5 5 5 ; 4 ; 4 * ; ; ; 5 ; 5 ; ; ; ; ; ; g 3 2 ; ; 5 g ; ; ; ; r r r 5 7 s = * r ; r ; ; & & * & 5 ; & , , , , , , , , ",
"; 5 , : 5 , 5 5 ; ; 4 5 ; ; ; ; 5 5 ; 5 4 4 4 4 g 4 ; ; 5 ; ; 5 g 2 2 ; 5 5 * s * s % 7 7 r 7 r & & & & % % = % , , , , , , , , ",
"5 5 , , 5 5 ; 5 ; ; ; ; ; 4 ; ; 5 5 5 5 ; 4 ; 5 ; 4 ; 4 5 5 ; ; 2 2 ; 5 ; ; 5 1 ; s ; * ; % & * & & ; ; ; = ; ; , , , , , , , , ",
"; 5 5 5 3 % 5 ; 5 ; 4 ; ; 4 ; ; 5 5 5 ; 4 4 5 ; 4 4 ; 4 ; 4 4 4 ; ; 5 ; ; ; g ; ; ; ; ; ; s g 5 * ; ; ; ; ; ; , , , , , , , , , "
};
